<svg xmlns="http://www.w3.org/2000/svg" width="201" height="199" fill="none"><path fill="#C4F1F9" d="M200.5 99.5V0l-49.875 49.625L200.5 99.5Z"/><path fill="#FED7E2" d="M.5 0v99.5l49.875-49.875L.5 0Z"/><path fill="#FBB6CE" d="M50.375 49.625.5 99.5l50 49.75 50-49.75-50.125-49.875Z"/><path fill="#9DECF9" d="m200.5 99.5-49.875-49.875L100.5 99.5l50 49.75 50-49.75Z"/><path fill="#F687B3" d="M.5 99.5V199l50-49.75L.5 99.5Z"/><path fill="#ED64A6" d="m100.5 99.5-50 49.75 50 49.75 50-49.75-50-49.75Z"/><path fill="#0BC5EA" d="M200.5 199V99.5l-50 49.75 50 49.75Z"/><path fill="#00A3C4" d="M.5 199h100l-50-49.75L.5 199Z"/><path fill="#D53F8C" d="M100.5 199h100l-50-49.75-50 49.75Z"/></svg>